# xmcd
#
# Track frame offsets:
#	150
#	19134
#	32970
#	49904
#	64513
#	79963
#	101075
#	115938
#	131221
#	148122
#	165436
#	181441
#
# Disc length: 2627 seconds
#
# Revision: 0
# Processed by: cddbd v1.5.2PL0 Copyright (c) Steve Scherf et al.
# Submitted via: EZCDAudioConverter 2.1.7.1
#
DISCID=ab0a410c
DTITLE=Miles Davis - Take Off 1/2
DYEAR=1952
DGENRE=
TTITLE0=Dear Old Stockholm
TTITLE1=Chance It
TTITLE2=Yesterdays
TTITLE3=Donna
TTITLE4=Woody 'N You
TTITLE5=How Deep Is The Ocean
TTITLE6=Kelo
TTITLE7=Enigma
TTITLE8=Ray's Idea
TTITLE9=Tempus Fugit
TTITLE10=C.T.A.
TTITLE11=I Waited For You
EXTD=
EXTT0=
EXTT1=
EXTT2=
EXTT3=
EXTT4=
EXTT5=
EXTT6=
EXTT7=
EXTT8=
EXTT9=
EXTT10=
EXTT11=
PLAYORDER=
